<svg xmlns="http://www.w3.org/2000/svg" width="160" height="100" viewBox="0 0 160 100">
  <defs>
    <clipPath id="clip">
      <rect width="160" height="100" rx="6"/>
    </clipPath>
    <clipPath id="logo-right-half">
      <rect x="5120" y="-2000" width="6000" height="15000" />
    </clipPath>
  </defs>
  <g clip-path="url(#clip)">
    <!-- Main Content Background -->
    <rect width="160" height="100" fill="#FFFFFF"/>
    
    <!-- Sidebar Background -->
    <rect x="0" y="15" width="45" height="85" fill="#E3E5E8"/>
    <rect x="44" y="15" width="1" height="85" fill="#D1D3D6"/>
    
    <!-- Title Bar Background -->
    <rect x="0" y="0" width="160" height="15" fill="#E3E5E8"/>
    <rect x="0" y="14" width="160" height="1" fill="#D1D3D6"/>
    
    <!-- Title Bar Content -->
    <rect x="6" y="5.5" width="4" height="4" fill="#80848E" rx="1"/>
    <rect x="13" y="6" width="22" height="3" fill="#5865F2" rx="1"/>
    <rect x="145" y="6" width="8" height="3" fill="#80848E" rx="1"/>
    <rect x="133" y="6" width="8" height="3" fill="#80848E" rx="1"/>
    <rect x="121" y="6" width="8" height="3" fill="#80848E" rx="1"/>
    
    <!-- Sidebar Logo & Version -->
    <g transform="translate(16.5, 17) scale(0.012)">
      <g transform="translate(-204,1290) scale(0.14,-0.14)" stroke="none">
        <path fill="#0074AD" d="M1976 8944 c-14 -14 -16 -81 -16 -588 0 -442 3 -576 13 -588 6 -9 80 -59 162 -111 277 -174 745 -471 1450 -919 989 -628 1211 -770 1369 -870 84 -53 150 -88 166 -88 14 0 53 17 86 38 71 46 601 383 799 507 77 48 237 150 355 225 522 333 1758 1118 1858 1179 29 19 54 42 57 54 3 12 4 278 3 590 -3 623 0 592 -63 583 -17 -2 -67 -28 -112 -57 -46 -30 -115 -75 -155 -100 -40 -26 -444 -283 -898 -571 -454 -289 -890 -567 -970 -618 -80 -51 -185 -119 -235 -150 -49 -31 -166 -105 -260 -165 -397 -251 -456 -287 -473 -283 -10 3 -107 63 -217 133 -110 70 -285 182 -390 248 -104 66 -343 217 -530 337 -187 119 -452 288 -590 375 -137 87 -338 214 -445 283 -955 613 -925 595 -964 556z"/>
        <path fill="#0096FF" clip-path="url(#logo-right-half)" d="M1976 8944 c-14 -14 -16 -81 -16 -588 0 -442 3 -576 13 -588 6 -9 80 -59 162 -111 277 -174 745 -471 1450 -919 989 -628 1211 -770 1369 -870 84 -53 150 -88 166 -88 14 0 53 17 86 38 71 46 601 383 799 507 77 48 237 150 355 225 522 333 1758 1118 1858 1179 29 19 54 42 57 54 3 12 4 278 3 590 -3 623 0 592 -63 583 -17 -2 -67 -28 -112 -57 -46 -30 -115 -75 -155 -100 -40 -26 -444 -283 -898 -571 -454 -289 -890 -567 -970 -618 -80 -51 -185 -119 -235 -150 -49 -31 -166 -105 -260 -165 -397 -251 -456 -287 -473 -283 -10 3 -107 63 -217 133 -110 70 -285 182 -390 248 -104 66 -343 217 -530 337 -187 119 -452 288 -590 375 -137 87 -338 214 -445 283 -955 613 -925 595 -964 556z"/>
        <path fill="#00527A" d="M1977 6862 c-16 -17 -17 -145 -17 -1641 l0 -1623 28 -24 c15 -13 65 -48 112 -77 47 -30 220 -140 384 -246 165 -105 310 -191 323 -191 12 0 27 9 33 19 7 13 10 374 10 1098 0 1108 0 1103 37 1103 7 0 102 -57 210 -127 109 -69 278 -178 376 -240 98 -63 192 -117 210 -119 25 -4 47 4 102 37 111 68 627 399 663 426 36 27 42 61 15 85 -16 14 -236 154 -773 493 -80 50 -170 107 -200 127 -30 19 -111 71 -180 114 -69 42 -255 161 -415 262 -706 450 -855 542 -881 542 -11 0 -28 -8 -37 -18z"/>
        <path fill="#0096FF" d="M7895 6684 c-171 -108 -371 -235 -445 -282 -74 -47 -211 -133 -305 -192 -93 -59 -341 -215 -550 -347 -209 -132 -438 -277 -510 -323 -71 -46 -170 -108 -218 -138 -91 -56 -119 -90 -101 -119 20 -32 742 -493 772 -493 29 0 7 -13 446 267 192 123 355 223 362 223 7 0 20 -7 28 -16 14 -14 16 -126 16 -1090 0 -722 3 -1082 10 -1095 6 -11 21 -19 36 -19 31 0 819 502 834 530 6 12 10 607 10 1639 0 1459 -2 1621 -16 1635 -8 9 -25 16 -37 16 -12 0 -162 -88 -332 -196z"/>
        <path fill="#0074AD" d="M4831 5077 c-13 -6 -33 -23 -43 -38 -18 -24 -19 -54 -18 -759 1 -819 -3 -772 70 -811 31 -17 60 -19 281 -19 239 0 247 1 280 23 72 48 68 10 69 805 0 792 2 764 -65 796 -27 13 -77 16 -292 16 -185 0 -265 -4 -282 -13z"/>
        <path fill="#00527A" d="M3516 4131 c-17 -18 -18 -48 -13 -393 4 -338 6 -382 26 -473 92 -415 367 -753 776 -955 152 -75 277 -118 431 -149 420 -85 835 -33 1199 149 423 213 707 573 779 990 23 137 24 811 0 834 -8 9 -23 16 -33 16 -10 0 -76 -37 -147 -82 -71 -44 -165 -104 -209 -131 -44 -28 -126 -81 -182 -118 -89 -60 -103 -73 -107 -101 -28 -203 -47 -268 -107 -370 -229 -389 -819 -532 -1274 -309 -120 59 -213 134 -288 233 -94 125 -137 229 -156 382 -7 62 -14 84 -33 101 -21 20 -542 356 -595 384 -31 16 -47 14 -67 -8z"/>
      </g>
    </g>
    <rect x="12" y="30" width="21" height="2.5" fill="#4E5058" rx="1"/>
    <rect x="6" y="36" width="33" height="0.5" fill="#80848E" opacity="0.5"/>
    
    <!-- Sidebar Main Item 1 -->
    <rect x="0" y="40" width="1.5" height="7" fill="#5865F2"/>
    <rect x="5" y="41.5" width="4" height="4" fill="#5865F2" rx="1"/>
    <rect x="12" y="42" width="18" height="3" fill="#5865F2" rx="1"/>
    <path d="M 37 42.5 L 39 44 L 41 42.5" stroke="#5865F2" stroke-width="1" fill="none" stroke-linecap="round"/>
    
    <!-- Sidebar Sub Items -->
    <rect x="4" y="48" width="37" height="7" fill="#5865F2" fill-opacity="0.1" rx="2"/>
    <circle cx="12" cy="51.5" r="1.5" fill="#5865F2"/>
    <rect x="16" y="50" width="12" height="3" fill="#5865F2" rx="1"/>
    
    <circle cx="12" cy="59.5" r="1.5" fill="#80848E"/>
    <rect x="16" y="58" width="14" height="3" fill="#80848E" rx="1"/>
    
    <circle cx="12" cy="67.5" r="1.5" fill="#80848E"/>
    <rect x="16" y="66" width="10" height="3" fill="#80848E" rx="1"/>
    
    <!-- Sidebar Main Item 2 -->
    <rect x="5" y="75.5" width="4" height="4" fill="#80848E" rx="1"/>
    <rect x="12" y="76" width="22" height="3" fill="#80848E" rx="1"/>
    <path d="M 38 75.5 L 40 77.5 L 38 79.5" stroke="#80848E" stroke-width="1" fill="none" stroke-linecap="round"/>
    
    <!-- Sidebar Main Item 3 -->
    <rect x="5" y="85.5" width="4" height="4" fill="#80848E" rx="1"/>
    <rect x="12" y="86" width="15" height="3" fill="#80848E" rx="1"/>
    <path d="M 38 85.5 L 40 87.5 L 38 89.5" stroke="#80848E" stroke-width="1" fill="none" stroke-linecap="round"/>
    
    <!-- Toolbar Search Bar -->
    <rect x="52" y="21" width="40" height="8" fill="#FFFFFF" rx="2" stroke="#D1D3D6" stroke-width="0.5"/>
    
    <!-- Toolbar Buttons -->
    <rect x="135" y="21" width="18" height="8" fill="#5865F2" rx="2"/>
    <rect x="115" y="21" width="16" height="8" fill="#DA373C" fill-opacity="0.1" rx="2"/>
    <rect x="120" y="23" width="6" height="4" fill="#DA373C" rx="1"/>
    <rect x="95" y="21" width="16" height="8" fill="#E9EAED" rx="2"/>
    
    <!-- Table Headers Background -->
    <rect x="45" y="34" width="115" height="9" fill="#F2F3F5"/>
    <rect x="45" y="42.5" width="115" height="0.5" fill="#D1D3D6"/>
    
    <!-- Table Headers Text -->
    <rect x="52" y="37" width="4" height="3" fill="#80848E" rx="1"/>
    <rect x="62" y="37" width="20" height="3" fill="#80848E" rx="1"/>
    <rect x="105" y="37" width="15" height="3" fill="#80848E" rx="1"/>
    <rect x="135" y="37" width="12" height="3" fill="#80848E" rx="1"/>
    
    <!-- Table Row 1 -->
    <rect x="52" y="48.5" width="4" height="4" fill="#4E5058" rx="1"/>
    <circle cx="64" cy="50.5" r="3" fill="#80848E"/>
    <rect x="70" y="49.5" width="25" height="2" fill="#060607" rx="1"/>
    <rect x="105" y="48.5" width="14" height="4" fill="#E9EAED" rx="2"/>
    <rect x="135" y="48.5" width="16" height="4" fill="#5865F2" fill-opacity="0.1" rx="2"/>
    <rect x="138" y="49.5" width="10" height="2" fill="#5865F2" rx="1"/>
    <rect x="45" y="55.5" width="115" height="0.5" fill="#E9EAED"/>
    
    <!-- Table Row 2 -->
    <rect x="52" y="61.5" width="4" height="4" fill="#4E5058" rx="1"/>
    <circle cx="64" cy="63.5" r="3" fill="#80848E"/>
    <rect x="70" y="62.5" width="20" height="2" fill="#060607" rx="1"/>
    <rect x="105" y="61.5" width="12" height="4" fill="#E9EAED" rx="2"/>
    <rect x="135" y="61.5" width="16" height="4" fill="#23A559" fill-opacity="0.1" rx="2"/>
    <rect x="138" y="62.5" width="10" height="2" fill="#23A559" rx="1"/>
    <rect x="45" y="68.5" width="115" height="0.5" fill="#E9EAED"/>
    
    <!-- Table Row 3 -->
    <rect x="52" y="74.5" width="4" height="4" fill="#4E5058" rx="1"/>
    <circle cx="64" cy="76.5" r="3" fill="#80848E"/>
    <rect x="70" y="75.5" width="28" height="2" fill="#060607" rx="1"/>
    <rect x="105" y="74.5" width="16" height="4" fill="#E9EAED" rx="2"/>
    <rect x="135" y="74.5" width="16" height="4" fill="#B48714" fill-opacity="0.1" rx="2"/>
    <rect x="138" y="75.5" width="10" height="2" fill="#B48714" rx="1"/>
    <rect x="45" y="81.5" width="115" height="0.5" fill="#E9EAED"/>
  </g>
  <rect width="160" height="100" rx="6" fill="none" stroke="#E0E0E0" stroke-width="2"/>
</svg>
