<svg xmlns="http://www.w3.org/2000/svg" width="160" height="100" viewBox="0 0 160 100">
  <rect width="160" height="100" rx="6" fill="#FFFFFF" stroke="#E0E0E0" stroke-width="2"/>
  <path d="M 0 6 Q 0 0 6 0 L 40 0 L 40 100 L 6 100 Q 0 100 0 94 Z" fill="#F5F7FA"/>
  <rect x="39" y="0" width="1" height="100" fill="#EAEAEA"/>
  <path d="M 15 15 L 20 22 L 25 15 L 25 25 L 15 25 Z" fill="#2568EC"/>
  <rect x="8" y="35" width="24" height="10" fill="#E5F0FF" rx="2"/>
  <rect x="5" y="35" width="2" height="10" fill="#2568EC" rx="1"/>
  <rect x="8" y="50" width="24" height="6" fill="#D0D5E0" rx="2"/>
  <rect x="8" y="62" width="24" height="6" fill="#D0D5E0" rx="2"/>
  <rect x="40" y="0" width="120" height="20" fill="#F8F9FA"/>
  <rect x="40" y="19" width="120" height="1" fill="#EAEAEA"/>
  <rect x="45" y="18" width="30" height="2" fill="#2568EC"/>
  <rect x="52" y="8" width="16" height="4" fill="#2568EC" rx="1"/>
  <rect x="85" y="8" width="16" height="4" fill="#707580" rx="1"/>
  <rect x="115" y="8" width="16" height="4" fill="#707580" rx="1"/>
  <rect x="48" y="30" width="102" height="10" fill="#FFFFFF" stroke="#EAEAEA" stroke-width="1" rx="2"/>
  <rect x="48" y="45" width="102" height="10" fill="#FFFFFF" stroke="#EAEAEA" stroke-width="1" rx="2"/>
  <rect x="48" y="60" width="102" height="10" fill="#FFFFFF" stroke="#EAEAEA" stroke-width="1" rx="2"/>
  <rect x="48" y="75" width="102" height="10" fill="#FFFFFF" stroke="#EAEAEA" stroke-width="1" rx="2"/>
  <rect x="135" y="32" width="10" height="6" fill="#EAEAEA" rx="1"/>
  <rect x="135" y="47" width="10" height="6" fill="#EAEAEA" rx="1"/>
  <rect x="135" y="62" width="10" height="6" fill="#EAEAEA" rx="1"/>
  <rect x="135" y="77" width="10" height="6" fill="#EAEAEA" rx="1"/>
</svg>
