<svg xmlns:rdf="http://www.w3.org/1999/02/22-rdf-syntax-ns#" xmlns="http://www.w3.org/2000/svg" xmlns:cc="http://web.resource.org/cc/" xmlns:xlink="http://www.w3.org/1999/xlink" xmlns:dc="http://purl.org/dc/elements/1.1/" id="svg2782" height="48px" width="48px">
 <defs id="defs2784">
  <filter id="filter3338" height="1.1722" width="1.2484" y="-.086104" x="-.12418">
   <feGaussianBlur id="feGaussianBlur3340" stdDeviation="0.22176256"/>
  </filter>
  <filter id="filter5746">
   <feGaussianBlur id="feGaussianBlur5748" stdDeviation="0.61997365"/>
  </filter>
  <filter id="filter7699">
   <feGaussianBlur id="feGaussianBlur7701" stdDeviation="0.26542242"/>
  </filter>
  <linearGradient id="linearGradient9710" y2="28.935" gradientUnits="userSpaceOnUse" x2="8.2491" gradientTransform="matrix(1.2224 0 0 1.2224 -50.641 -6.2146)" y1="22.81" x1="3.5097">
   <stop id="stop10709" stop-color="#fff" offset="0"/>
   <stop id="stop10711" stop-color="#fff" stop-opacity="0" offset="1"/>
  </linearGradient>
  <filter id="filter3182">
   <feGaussianBlur id="feGaussianBlur3184" stdDeviation="1.0503269"/>
  </filter>
 </defs>
 <metadata id="metadata2787">
  <rdf:RDF>
   <cc:Work rdf:about="">
    <dc:format>image/svg+xml</dc:format>
    <dc:type rdf:resource="http://purl.org/dc/dcmitype/StillImage"/>
   </cc:Work>
  </rdf:RDF>
 </metadata>
 <g id="layer1">
  <g id="g7064">
   <path id="path4648" d="m-25.906 41.504c-0.31-0.113-0.935-0.543-1.389-0.957-0.743-0.675-0.999-0.707-2.549-0.317-1.921 0.484-4.367 0.047-5.524-0.985-0.525-0.469-0.757-0.49-1.214-0.111-3.441-0.433-0.167-15.674 1.776-15.752 0.3-2.752 5.128-8.02 6.09-8.02 0.178 0 0.738 0.912 1.243 1.376 0.506 0.464 0.982 0.675 1.057 0.469 0.414-1.128 1.692-2.813 2.135-2.813 0.281 0 0.81 0.663 1.175 1.473 0.428 0.948 1.067 1.64 1.795 1.941 1.173 0.487 1.465 0.312 2.509-1.503 0.626-1.088 1.408-0.118 1.664 2.063 0.279 2.375 0.714 3.151 1.765 3.151 0.38 0 1.263 0.503 1.962 1.117 0.7 0.614 1.381 1.007 1.513 0.875 1.221 3.156 1.357 5.431 0.011 12.903-0.481-0.481-2.136 1.064-2.8 2.615-0.65 1.517-0.783 1.615-2.184 1.615-0.82 0-1.605-0.185-1.745-0.41-0.286-0.464-0.918-0.346-4.067 0.758-2.358 0.827-2.36 0.828-3.223 0.512z" stroke-opacity=".62941" transform="matrix(.97009 0 0 .97009 47.352 2.8207)" filter="url(#filter3182)" stroke="#89898a" stroke-width="2.0617" fill="#edd400"/>
   <path id="path2790" d="m24.292 3.3397c-8.453-0.0661-16.345 5.1637-17.751 13.144-0.2591 1.472-0.4904 2.139-1.2588 3.04-3.0659 1.518-5.2822 5.58-5.2822 10.349 0.17343 4.759 3.2325 11.893 8.9367 11.025 0.1214-0.316 0.213-6.1 0.2149-12.837 0.0036-12.199 0.0111-12.237 0.8904-14.126 2.579-5.539 9.966-8.9073 16.891-7.7392 5.052 0.8521 9.408 3.8222 11.363 7.8002 0.885 1.802 0.99 3.154 1.044 8.66l0.045 18.348c5.223 0 8.615-5.361 8.615-11.192 0-3.59-1.375-6.751-3.47-8.66-0.032-0.029-0.06-0.064-0.092-0.092-0.303-0.37-0.588-0.716-0.891-0.983-1.352-1.191-1.581-1.592-1.812-3.44-0.578-4.632-4.063-9.0041-9.029-11.362-2.722-1.2932-5.597-1.9132-8.414-1.9353z" stroke="#0a1887" stroke-width="0" fill="#0000a5"/>
   <path id="path3365" d="m-24.048 14.52c-0.031 0.02-0.086 0.122-0.125 0.282-0.574 2.392-1.769 13.449-2.219 15.937-0.03 0.076-0.07 0.181-0.093 0.219-0.048 0.079-0.108 0.021-0.188-0.156-0.006-0.015-0.024-0.047-0.031-0.063-0.565-2.936-1.763-17.002-2.063-13.594-0.337 3.845-0.745 10.857-1.062 12.938-0.316 2.074-1.141-13.413-1.563-10.313-0.422 3.106-0.615 8.955-1 10.375-0.364 1.349-0.784-7.959-1-8.281-0.215-0.321-0.569 6.29-0.812 7.156-0.208 0.739-0.399-1.096-0.688-2.531-0.217-1.084-0.423 2.046-0.562 4.219-0.045 0.321-0.103 0.782-0.125 0.875-0.032 0.134-0.108-0.299-0.219-0.844-0.184-2.004-0.512-4.758-1.125-4.25 0.008 1.113-0.037 2.629-0.125 4.219-0.208 1.719-0.582 3.717-0.594 4.375 0.105 0.029 0.209-0.052 0.313-0.156-0.16 2.334-0.306 4.44-0.313 5.343 0.611 0.378 1.25-5.157 1.25-5.718s1.368 6.873 1.5 3.75c0.133-3.169 0.258-5.623 0.938-0.032 0.675 5.553 0.48-12.283 1.625-2.375 1.15 9.949 1.237 0.629 1.25-2.531 0.012-3.205 1.56 9.333 2 4.281 0.44-5.097 0.367-5.274 0.75-6.718 0.77 4.143 1.247 5.312 1.656 7.812s0.514 3.377 0.969-3.344c0.455-6.674 0.742-0.335 0.906 2.813 0.165 3.194 0.423 4.885 1.563-2.25 1.151-6.579 1.228-3.088 1.437 0.031 0.21 3.122 0.331 6.528 0.906 3.594 0.576-2.934 1.39-7.956 1.5-7.688 0.727 1.757 0.858 5.797 1.375 6.594 0.216-0.554 0.495-5.548 1.532-6.344 0.356-0.273 0.438 1.832 0.718 3.75 0.274 1.874 0.564 2.69 0.875 0.344 0.312-2.346 0.851-4.92 1-4.312 0.139 0.565 0.675 3.638 0.875 3.437 0.278-0.277 0.389-3.577 1.032-1.969 0.839 2.102 1.051 0.448 0.968-1.718 0.015-0.277 0.022-0.6-0.031-0.938-0.008-0.053-0.021-0.102-0.031-0.156-0.129-1.677-0.373-3.334-0.656-3.719-0.183 0.723-0.106 3.344-0.5 3.344s-0.191-7.441-0.657-6c-0.47 1.455-0.468 3.33-0.968 5.156-0.32-1.647-0.474-7.446-0.969-6.562s-0.829 4.941-1.906 6.593c-0.482-2.7-0.306-3.924-0.532-7.406-0.225-3.482-0.779-7.063-1.031-4.562-0.251 2.495-0.384 10.789-0.812 8.281-0.429-2.508-0.42 6.486-0.969 2.687-0.55-3.804-0.921-11.204-1.438-9.468-0.516 1.736-1.39 10.375-1.875 10.093-0.454-0.263-0.184-14.798-0.656-14.5z" fill-opacity=".95294" transform="matrix(.97009 0 0 .97009 47.352 2.8207)" filter="url(#filter7699)" fill="#fe0a00"/>
   <path id="path9728" d="m-41.886 18c-4.33 2.24-4.563 4.768-5.25 7.562 0 0 2.731-4.319 5.125-5.468l0.125-2.094z" fill-rule="evenodd" transform="matrix(.73136 -.083371 .083371 .73136 34.815 4.3096)" filter="url(#filter3338)" stroke-width=".62682px" fill="url(#linearGradient9710)"/>
   <path id="path3783" d="m11.072 18.37v22.63" fill-rule="evenodd" stroke="#0a1887" stroke-linecap="round" stroke-width="2.104" fill="#0000a5"/>
   <path id="path3785" d="m36.983 18.229v22.63" fill-rule="evenodd" stroke="#0a1887" stroke-linecap="round" stroke-width="2.1041" fill="#0000a5"/>
   <path id="path3357" d="m-42.385 38.369c-1.972-1.329-4.533-3.956-2.812-3.035 1.47 0.787 2.072-0.061 2.085-6.531 0.012-6.063 0.051-6.379 1.124-9.094 0.705-1.787 1.111-3.496 1.112-4.687 0.003-3.636 3.289-8.2711 7.301-10.622 3.058-1.7922 5.76-2.5097 9.575-2.5419 9.659-0.0816 17.05 5.3781 17.867 13.199 0.2154 2.059 0.3663 2.394 1.294 2.874 1.3149 0.68 3.0635 2.297 4.1447 4.724 0.65509 1.47 0.83959 2.602 0.85564 5.249 0.01911 3.151-0.072535 3.568-1.3787 6.269-1.442 2.981-3.3301 4.646-5.2514 5.126-1.3305 0.332-1.3153-0.1 0.0809-2.302 1.7098-2.696 3.1832-6.433 3.182-9.468-0.0013-3.17-1.846-8.756-2.9969-10.142-0.4452-0.536-0.9267-1.727-1.0702-2.646-0.4114-2.638-1.4622-4.589-3.609-6.7019-2.675-2.6334-6.431-4.4475-10.332-4.9906-7.121-0.9914-14.482 2.3661-17.471 7.9685-0.861 1.615-0.881 1.629-1.065 14.687-0.208 14.778-0.121 14.36-2.635 12.665z" transform="matrix(.97009 0 0 .97009 47.352 2.8207)" filter="url(#filter5746)" fill="#141258"/>
  </g>
 </g>
</svg>
