<?xml version="1.0" encoding="UTF-8"?>
<svg version="1.1" xmlns="http://www.w3.org/2000/svg" width="64" height="64">
<path d="M0 0 C0.495 4.455 0.495 4.455 1 9 C-9.23 11.64 -19.46 14.28 -30 17 C-23.25467502 16.34763726 -23.25467502 16.34763726 -16.51049805 15.68359375 C-9.98803805 15.07182864 -3.54932562 14.8846075 3 15 C3.59789566 20.0342891 4.18556975 25.06962869 4.76391602 30.10620117 C4.9619741 31.81844006 5.16279277 33.53036202 5.36645508 35.24194336 C5.6591743 37.70608093 5.94185747 40.17119788 6.22265625 42.63671875 C6.36164085 43.77919319 6.36164085 43.77919319 6.50343323 44.94474792 C6.93641342 48.83585784 7.20469843 52.2400659 6 56 C2.99382731 59.00617269 0.17618402 58.59585316 -4 59 C-0.04 59.33 3.92 59.66 8 60 C8 61.32 8 62.64 8 64 C-12.79 64 -33.58 64 -55 64 C-55 63.01 -55 62.02 -55 61 C-52.03 60.505 -52.03 60.505 -49 60 C-49.12117188 59.27039062 -49.24234375 58.54078125 -49.3671875 57.7890625 C-50.54714259 50.43703464 -51.45896211 43.09459388 -52.24511719 35.69189453 C-52.8715831 29.89646584 -53.68849146 24.15934432 -54.6328125 18.40625 C-55 16 -55 16 -55 14 C-43.68468051 10.75072355 -32.30682375 7.74962219 -20.90811157 4.80880737 C-19.30046146 4.39402391 -17.69301942 3.97843318 -16.08578491 3.56204224 C-13.79744348 2.96971199 -11.50825311 2.38079077 -9.21875 1.79296875 C-8.52050613 1.61194611 -7.82226227 1.43092346 -7.1028595 1.24441528 C-2.22972009 0 -2.22972009 0 0 0 Z M-22 60 C-18 61 -18 61 -18 61 Z " fill="#060606" transform="translate(56,0)"/>
<path d="M0 0 C5.32898528 5.32898528 3.11705931 19.14492605 3.1328125 26.296875 C3 29 3 29 2 30 C-0.71104946 30.37504787 -3.4075441 30.69291179 -6.12890625 30.97265625 C-6.95196762 31.06002548 -7.77502899 31.14739471 -8.62303162 31.2374115 C-10.37223962 31.42191786 -12.12168474 31.6041876 -13.87133789 31.78442383 C-16.52756997 32.0588907 -19.18272523 32.34237399 -21.83789062 32.62695312 C-23.53900507 32.80523634 -25.24017542 32.98298708 -26.94140625 33.16015625 C-27.72818253 33.24451431 -28.5149588 33.32887238 -29.32557678 33.41578674 C-34.24345393 33.91510861 -39.05573347 34.16261082 -44 34 C-45.98214904 32.01785096 -45.72887786 28.40351845 -46.0625 25.6875 C-46.15192871 24.97142578 -46.24135742 24.25535156 -46.33349609 23.51757812 C-47.05638354 17.33241542 -47.21222986 11.22540929 -47 5 C-42.42277705 3.27615125 -38.06753955 2.53628244 -33.22265625 2.1484375 C-32.49308212 2.08467926 -31.763508 2.02092102 -31.01182556 1.95523071 C-29.47668378 1.82250018 -27.94123531 1.69327454 -26.40551758 1.56738281 C-24.07232681 1.37580687 -21.74029496 1.17322891 -19.40820312 0.96875 C-17.90890944 0.84049807 -16.40956195 0.71287318 -14.91015625 0.5859375 C-13.87702049 0.49691666 -13.87702049 0.49691666 -12.82301331 0.40609741 C-8.53673672 0.05838228 -4.29749444 -0.22186238 0 0 Z " fill="#E8E8E8" transform="translate(55,24)"/>
<path d="M0 0 C-1.32 0.33 -2.64 0.66 -4 1 C-2.96551321 3.57467586 -2.96551321 3.57467586 -1 6 C2.14193968 6.85892855 2.14193968 6.85892855 5.625 6.875 C6.79289062 6.93429688 7.96078125 6.99359375 9.1640625 7.0546875 C11.90137787 7.3297362 11.90137787 7.3297362 13 6 C11.35 6 9.7 6 8 6 C8 5.67 8 5.34 8 5 C11.76933784 4.48828823 15.54065321 3.99284873 19.3125 3.5 C20.36501953 3.35691406 21.41753906 3.21382812 22.50195312 3.06640625 C29.3778582 2.17782775 36.06889839 1.81353619 43 2 C43.50868796 6.14481478 44.00535957 10.29098724 44.5 14.4375 C44.64308594 15.60216797 44.78617188 16.76683594 44.93359375 17.96679688 C46.8748863 34.37534109 46.8748863 34.37534109 45 40 C42.00613033 42.99386967 39.07143284 42.7507286 35 43 C34.319375 43.20625 33.63875 43.4125 32.9375 43.625 C29.87463938 44.21781173 27.04226366 43.52654563 24 43 C24 42.67 24 42.34 24 42 C29.61 41.34 35.22 40.68 41 40 C41.09109837 30.98126173 41.15786934 21.96276635 40 13 C39.505 12.505 39.505 12.505 39 12 C37.01851448 12.040823 35.03880128 12.16355491 33.0625 12.3125 C32.42586426 12.35955078 31.78922852 12.40660156 31.13330078 12.45507812 C29.64386366 12.56614317 28.15461978 12.67981568 26.66552734 12.79541016 C23.57580849 13.03255839 20.48522585 13.2564033 17.39453125 13.48046875 C15.05465506 13.65320691 12.71481136 13.8263859 10.375 14 C9.23683838 14.08290283 8.09867676 14.16580566 6.92602539 14.2512207 C5.30361938 14.37436646 5.30361938 14.37436646 3.6484375 14.5 C2.68083496 14.5721875 1.71323242 14.644375 0.71630859 14.71875 C-1.9065047 14.99031938 -4.42531986 15.43786834 -7 16 C-7.33 18.97 -7.66 21.94 -8 25 C-8.33 25 -8.66 25 -9 25 C-9 23.02 -9 21.04 -9 19 C-9.66 19 -10.32 19 -11 19 C-13.29612756 7.47835991 -13.29612756 7.47835991 -13 2 C-11.39935157 1.46845258 -9.79431126 0.95011647 -8.1875 0.4375 C-7.29417969 0.14746094 -6.40085937 -0.14257812 -5.48046875 -0.44140625 C-3 -1 -3 -1 0 0 Z " fill="#121212" transform="translate(16,13)"/>
<path d="M0 0 C5.32898528 5.32898528 3.11705931 19.14492605 3.1328125 26.296875 C3 29 3 29 2 30 C-0.33297433 30.04092937 -2.66705225 30.04241723 -5 30 C-5.33333333 28.66666667 -5.66666667 27.33333333 -6 26 C-6.185625 25.4225 -6.37125 24.845 -6.5625 24.25 C-7.22871543 20.82374921 -7.05811653 17.48699202 -7 14 C-8.32 14 -9.64 14 -11 14 C-11 10 -11 10 -8.5625 7.375 C-7.716875 6.59125 -6.87125 5.8075 -6 5 C-5.67 4.34 -5.34 3.68 -5 3 C-9.57174746 3.40657304 -14.14326721 3.81559305 -18.71459961 4.22680664 C-20.26727486 4.36613894 -21.82000856 4.50482164 -23.37280273 4.64282227 C-25.61458042 4.84217136 -27.8561322 5.04391499 -30.09765625 5.24609375 C-30.78336197 5.3065538 -31.46906769 5.36701385 -32.17555237 5.42930603 C-36.47780834 5.82024121 -40.7301656 6.35673331 -45 7 C-45.33 10.3 -45.66 13.6 -46 17 C-46.33 17 -46.66 17 -47 17 C-47 13.04 -47 9.08 -47 5 C-42.42277705 3.27615125 -38.06753955 2.53628244 -33.22265625 2.1484375 C-32.49308212 2.08467926 -31.763508 2.02092102 -31.01182556 1.95523071 C-29.47668378 1.82250018 -27.94123531 1.69327454 -26.40551758 1.56738281 C-24.07232681 1.37580687 -21.74029496 1.17322891 -19.40820312 0.96875 C-17.90890944 0.84049807 -16.40956195 0.71287318 -14.91015625 0.5859375 C-13.87702049 0.49691666 -13.87702049 0.49691666 -12.82301331 0.40609741 C-8.53673672 0.05838228 -4.29749444 -0.22186238 0 0 Z " fill="#DBDBDB" transform="translate(55,24)"/>
<path d="M0 0 C0.495 4.455 0.495 4.455 1 9 C-3.28623505 10.18726275 -7.57970779 11.3459744 -11.875 12.5 C-13.68097656 13.00080078 -13.68097656 13.00080078 -15.5234375 13.51171875 C-29.7716254 17.30607314 -29.7716254 17.30607314 -36 16 C-37.76904297 14.59960938 -37.76904297 14.59960938 -39 13 C-39 11 -39 11 -37 9 C-34.40786232 8.19896261 -31.84795644 7.49076446 -29.21875 6.8359375 C-28.0648175 6.54053574 -28.0648175 6.54053574 -26.88757324 6.23916626 C-25.26100136 5.8241508 -23.6335724 5.41248231 -22.00537109 5.00390625 C-19.50818703 4.37705513 -17.01371427 3.74023868 -14.51953125 3.1015625 C-12.94025295 2.69993534 -11.36083051 2.29887444 -9.78125 1.8984375 C-9.0322644 1.7078476 -8.28327881 1.51725769 -7.51159668 1.32089233 C-2.23415287 0 -2.23415287 0 0 0 Z " fill="#0E0E0E" transform="translate(56,0)"/>
<path d="M0 0 C-1.32 0.33 -2.64 0.66 -4 1 C-2.97121894 3.57907181 -2.97121894 3.57907181 -1 6 C2.17861973 6.82130678 2.17861973 6.82130678 5.6875 6.8125 C6.86699219 6.86019531 8.04648437 6.90789063 9.26171875 6.95703125 C10.61716797 6.97830078 10.61716797 6.97830078 12 7 C11.67 9.31 11.34 11.62 11 14 C2.09 14.99 2.09 14.99 -7 16 C-7.33 18.97 -7.66 21.94 -8 25 C-8.33 25 -8.66 25 -9 25 C-9 23.02 -9 21.04 -9 19 C-9.66 19 -10.32 19 -11 19 C-13.29612756 7.47835991 -13.29612756 7.47835991 -13 2 C-11.39935157 1.46845258 -9.79431126 0.95011647 -8.1875 0.4375 C-7.29417969 0.14746094 -6.40085937 -0.14257812 -5.48046875 -0.44140625 C-3 -1 -3 -1 0 0 Z " fill="#202020" transform="translate(16,13)"/>
<path d="M0 0 C3.375 0.875 3.375 0.875 5.375 3.875 C5.07687643 7.97419904 4.50132393 11.33112679 2.375 14.875 C4.025 15.205 5.675 15.535 7.375 15.875 C7.375 17.525 7.375 19.175 7.375 20.875 C3.085 20.875 -1.205 20.875 -5.625 20.875 C-4.79083712 16.70418558 -3.83732487 13.83969139 -2.0625 10.0625 C-1.60746094 9.08667969 -1.15242188 8.11085938 -0.68359375 7.10546875 C-0.33425781 6.36941406 0.01507813 5.63335937 0.375 4.875 C-1.605 5.535 -3.585 6.195 -5.625 6.875 C-6.285 5.555 -6.945 4.235 -7.625 2.875 C-4.9375797 0.1875797 -3.8931865 -0.13424781 0 0 Z " fill="#5E7289" transform="translate(34.625,31.125)"/>
<path d="M0 0 C3.5625 0.3125 3.5625 0.3125 5.5 1.375 C7.10636022 4.30424511 6.68389026 7.0349629 6.5625 10.3125 C6.8925 10.6425 7.2225 10.9725 7.5625 11.3125 C7.875 14.6875 7.875 14.6875 7.5625 18.3125 C5.9375 20.25 5.9375 20.25 3.5625 21.3125 C0.3125 21.5 0.3125 21.5 -2.4375 21.3125 C-2.7675 19.6625 -3.0975 18.0125 -3.4375 16.3125 C-1.4575 16.3125 0.5225 16.3125 2.5625 16.3125 C2.5625 14.9925 2.5625 13.6725 2.5625 12.3125 C1.2425 11.9825 -0.0775 11.6525 -1.4375 11.3125 C-1.1075 9.9925 -0.7775 8.6725 -0.4375 7.3125 C0.2225 7.3125 0.8825 7.3125 1.5625 7.3125 C1.5625 6.6525 1.5625 5.9925 1.5625 5.3125 C-0.0875 5.6425 -1.7375 5.9725 -3.4375 6.3125 C-4.0975 4.9925 -4.7575 3.6725 -5.4375 2.3125 C-3.4375 0.3125 -3.4375 0.3125 0 0 Z " fill="#C0561C" transform="translate(17.4375,32.6875)"/>
<path d="M0 0 C0.66 0.66 1.32 1.32 2 2 C1.875 4.0234375 1.875 4.0234375 1 6 C-1.78851252 7.55608958 -4.92129445 8.1890699 -8 9 C-8.81082031 9.24234375 -9.62164062 9.4846875 -10.45703125 9.734375 C-16.30120043 11.32383395 -16.30120043 11.32383395 -19.5625 9.8125 C-21 8 -21 8 -21 5 C-19.5459375 4.87625 -19.5459375 4.87625 -18.0625 4.75 C-14.8519404 4.31367648 -12.29810592 3.32315992 -9.375 1.9375 C-6.11250598 0.40907435 -3.66664034 -0.66666188 0 0 Z " fill="#1F1F1F" transform="translate(53,3)"/>
<path d="M0 0 C0.84023188 4.35332736 1.10770995 8.44442519 1.0625 12.875 C1.05347656 14.02742188 1.04445313 15.17984375 1.03515625 16.3671875 C1.02355469 17.23601563 1.01195312 18.10484375 1 19 C-0.32 19 -1.64 19 -3 19 C-4.28317892 15.15046324 -4.06643637 12.05261865 -4 8 C-5.32 8 -6.64 8 -8 8 C-8 6.68 -8 5.36 -8 4 C-3.88888889 0 -3.88888889 0 0 0 Z " fill="#3A932E" transform="translate(52,30)"/>
<path d="M0 0 C0.495 0.99 0.495 0.99 1 2 C-14.18 3.65 -29.36 5.3 -45 7 C-45.33 10.3 -45.66 13.6 -46 17 C-46.33 17 -46.66 17 -47 17 C-47 13.04 -47 9.08 -47 5 C-42.42277705 3.27615125 -38.06753955 2.53628244 -33.22265625 2.1484375 C-32.49308212 2.08467926 -31.763508 2.02092102 -31.01182556 1.95523071 C-29.47668378 1.82250018 -27.94123531 1.69327454 -26.40551758 1.56738281 C-24.07232681 1.37580687 -21.74029496 1.17322891 -19.40820312 0.96875 C-17.90890944 0.84049807 -16.40956195 0.71287318 -14.91015625 0.5859375 C-13.87702049 0.49691666 -13.87702049 0.49691666 -12.82301331 0.40609741 C-8.5377105 0.05846127 -4.29838753 -0.05237252 0 0 Z " fill="#A9A9A9" transform="translate(55,24)"/>
<path d="M0 0 C0 0.33 0 0.66 0 1 C-1.65 1 -3.3 1 -5 1 C-3.89290509 3.06295292 -3.89290509 3.06295292 -2 5 C1.10197397 5.80946422 1.10197397 5.80946422 4 6 C3.34 6.66 2.68 7.32 2 8 C4.475 8.495 4.475 8.495 7 9 C6.67 9.66 6.34 10.32 6 11 C3.89504036 10.93994409 1.79088565 10.85114641 -0.3125 10.75 C-1.48425781 10.70359375 -2.65601563 10.6571875 -3.86328125 10.609375 C-7 10 -7 10 -8.91796875 8.078125 C-10 6 -10 6 -10 4 C-9.67 3.67 -9.34 3.34 -9 3 C-10.32 2.67 -11.64 2.34 -13 2 C-8.49646738 0.24252386 -4.82360189 -0.19294408 0 0 Z " fill="#0C0C0C" transform="translate(22,10)"/>
<path d="M0 0 C1 1 1 1 1.0625 4.0625 C1.041875 5.031875 1.02125 6.00125 1 7 C-0.32 7 -1.64 7 -3 7 C-3 6.01 -3 5.02 -3 4 C-4.98 4.66 -6.96 5.32 -9 6 C-9.66 4.68 -10.32 3.36 -11 2 C-7.38140898 -1.61859102 -4.80859116 -1.08873762 0 0 Z " fill="#5D8DC2" transform="translate(38,32)"/>
<path d="M0 0 C0.33 0 0.66 0 1 0 C1.48468708 6.42210386 1.48468708 6.42210386 -0.625 8.9375 C-3.56030453 10.25066255 -5.81863606 10.21691118 -9 10 C-9.33 8.35 -9.66 6.7 -10 5 C-8.02 5 -6.04 5 -4 5 C-3.67 3.68 -3.34 2.36 -3 1 C-2.01 1.66 -1.02 2.32 0 3 C0 2.01 0 1.02 0 0 Z " fill="#A86038" transform="translate(24,44)"/>
<path d="M0 0 C-0.33 0.99 -0.66 1.98 -1 3 C-1.66 3 -2.32 3 -3 3 C-3 3.99 -3 4.98 -3 6 C-3.99 6 -4.98 6 -6 6 C-6 6.99 -6 7.98 -6 9 C-5.01 9 -4.02 9 -3 9 C-3 9.99 -3 10.98 -3 12 C-3.66 12 -4.32 12 -5 12 C-5 13.98 -5 15.96 -5 18 C-5.33 18 -5.66 18 -6 18 C-8.29612756 6.47835991 -8.29612756 6.47835991 -8 1 C-5.29120665 -0.35439668 -2.99066732 -0.06501451 0 0 Z " fill="#545454" transform="translate(11,14)"/>
<path d="M0 0 C3.96 0 7.92 0 12 0 C12 0.66 12 1.32 12 2 C14.64 2 17.28 2 20 2 C20 2.33 20 2.66 20 3 C13.62694402 3.74507544 7.41688675 4.10349817 1 4 C0.67 2.68 0.34 1.36 0 0 Z " fill="#D4D4D4" transform="translate(30,52)"/>
<path d="M0 0 C1 3 1 3 0 6 C1.98 6 3.96 6 6 6 C6 6.66 6 7.32 6 8 C2.04 8.66 -1.92 9.32 -6 10 C-4.74193548 3.70967742 -4.74193548 3.70967742 -3 1 C-2.01 0.67 -1.02 0.34 0 0 Z " fill="#4583C8" transform="translate(35,42)"/>
<path d="M0 0 C0.66 0.33 1.32 0.66 2 1 C2 4.63 2 8.26 2 12 C-1.89859955 13.94929977 -2.9350463 14.10162384 -7 14 C-7.61875 14.185625 -8.2375 14.37125 -8.875 14.5625 C-12.0290197 15.211857 -14.85785502 14.54383279 -18 14 C-18 13.67 -18 13.34 -18 13 C-9.585 12.01 -9.585 12.01 -1 11 C-0.67 7.37 -0.34 3.74 0 0 Z " fill="#444545" transform="translate(58,42)"/>
<path d="M0 0 C2.64 0 5.28 0 8 0 C6.125 4.875 6.125 4.875 5 6 C3.00041636 6.04080783 0.99954746 6.04254356 -1 6 C-0.67 4.02 -0.34 2.04 0 0 Z " fill="#DADADA" transform="translate(35,18)"/>
<path d="M0 0 C0.33 2.97 0.66 5.94 1 9 C0.01 8.67 -0.98 8.34 -2 8 C-2.33 6.68 -2.66 5.36 -3 4 C-9.435 4.495 -9.435 4.495 -16 5 C-13.45212092 2.45212092 -11.48592567 2.20458327 -8 1.375 C-6.39125 0.98441406 -6.39125 0.98441406 -4.75 0.5859375 C-2 0 -2 0 0 0 Z " fill="#050505" transform="translate(56,0)"/>
<path d="M0 0 C0 0.66 0 1.32 0 2 C-3.96 2.66 -7.92 3.32 -12 4 C-12.33 7.3 -12.66 10.6 -13 14 C-13.33 14 -13.66 14 -14 14 C-14 10.04 -14 6.08 -14 2 C-9.07262981 0.02905192 -5.21979128 -0.1799928 0 0 Z " fill="#8A8B8A" transform="translate(22,27)"/>
<path d="M0 0 C1.65 0 3.3 0 5 0 C3.68 0.33 2.36 0.66 1 1 C1 1.66 1 2.32 1 3 C2.32 3 3.64 3 5 3 C5 4.32 5 5.64 5 7 C6.32 7.33 7.64 7.66 9 8 C5.7 8 2.4 8 -1 8 C-0.67 5.36 -0.34 2.72 0 0 Z " fill="#050505" transform="translate(43,16)"/>
<path d="M0 0 C0.33 1.32 0.66 2.64 1 4 C-2.3125 4.6875 -2.3125 4.6875 -6 5 C-7.9375 3.6875 -7.9375 3.6875 -9 2 C-9 1.34 -9 0.68 -9 0 C-5.62182575 -0.84454356 -3.32534757 -1.10844919 0 0 Z " fill="#C3C3C3" transform="translate(26,11)"/>
<path d="M0 0 C2.31 0 4.62 0 7 0 C6.67 1.65 6.34 3.3 6 5 C3.69 5 1.38 5 -1 5 C-0.67 3.35 -0.34 1.7 0 0 Z " fill="#D6D6D6" transform="translate(21,20)"/>
<path d="M0 0 C2.31 0 4.62 0 7 0 C6.67 1.65 6.34 3.3 6 5 C3.69 5 1.38 5 -1 5 C-0.67 3.35 -0.34 1.7 0 0 Z " fill="#D5D5D5" transform="translate(49,17)"/>
<path d="M0 0 C0.66 1.32 1.32 2.64 2 4 C-0.64 4.33 -3.28 4.66 -6 5 C-6.33 3.68 -6.66 2.36 -7 1 C-4.53721199 -0.231394 -2.7204945 -0.07159196 0 0 Z " fill="#D4D4D4" transform="translate(39,7)"/>
<path d="M0 0 C0.33 1.32 0.66 2.64 1 4 C-1.31 4.33 -3.62 4.66 -6 5 C-6.66 3.68 -7.32 2.36 -8 1 C-5.07175348 0.02391783 -3.04386724 -0.08226668 0 0 Z " fill="#C7C8C8" transform="translate(53,3)"/>
<path d="M0 0 C0.66 0.99 1.32 1.98 2 3 C3.97747122 3.36297936 3.97747122 3.36297936 6.125 3.1875 C7.40375 3.125625 8.6825 3.06375 10 3 C9.01 3.99 8.02 4.98 7 6 C6.01 5.67 5.02 5.34 4 5 C4 5.66 4 6.32 4 7 C4.66 7.33 5.32 7.66 6 8 C3.36 8 0.72 8 -2 8 C-1.34 7.34 -0.68 6.68 0 6 C0.16681109 2.91652174 0.16681109 2.91652174 0 0 Z " fill="#DBDAD9" transform="translate(13,50)"/>
<path d="M0 0 C1.32 0 2.64 0 4 0 C4 1.65 4 3.3 4 5 C5.65 5 7.3 5 9 5 C9 5.33 9 5.66 9 6 C5.37 6 1.74 6 -2 6 C-1.34 4.02 -0.68 2.04 0 0 Z " fill="#030303" transform="translate(15,21)"/>
<path d="M0 0 C1.670625 0.061875 1.670625 0.061875 3.375 0.125 C0.375 2.125 0.375 2.125 -1.625 3.125 C-0.635 3.785 0.355 4.445 1.375 5.125 C-0.275 5.455 -1.925 5.785 -3.625 6.125 C-4.285 4.805 -4.945 3.485 -5.625 2.125 C-3.625 0.125 -3.625 0.125 0 0 Z " fill="#B37F62" transform="translate(17.625,32.875)"/>
<path d="M0 0 C2.31 0 4.62 0 7 0 C6.67 0.66 6.34 1.32 6 2 C7.32 2.66 8.64 3.32 10 4 C7.03 4 4.06 4 1 4 C0.67 2.68 0.34 1.36 0 0 Z " fill="#CDCDCD" transform="translate(30,52)"/>
<path d="M0 0 C0.33 0 0.66 0 1 0 C1.125 7.75 1.125 7.75 0 10 C1.32 10.66 2.64 11.32 4 12 C1.69 12 -0.62 12 -3 12 C-3.33 10.35 -3.66 8.7 -4 7 C-2.68 7 -1.36 7 0 7 C0 4.69 0 2.38 0 0 Z " fill="#BCBCBC" transform="translate(53,42)"/>
<path d="M0 0 C0.33 0 0.66 0 1 0 C0.125 6.75 0.125 6.75 -1 9 C-2.65 8.67 -4.3 8.34 -6 8 C-5.67 6.68 -5.34 5.36 -5 4 C-3.68 4 -2.36 4 -1 4 C-0.67 2.68 -0.34 1.36 0 0 Z " fill="#6084AB" transform="translate(39,35)"/>
<path d="M0 0 C0 0.66 0 1.32 0 2 C-2.64 2 -5.28 2 -8 2 C-8.33 2.66 -8.66 3.32 -9 4 C-10.32 3.67 -11.64 3.34 -13 3 C-12.67 2.34 -12.34 1.68 -12 1 C-7.973409 0.22565558 -4.09613971 -0.12412545 0 0 Z " fill="#0E0E0E" transform="translate(43,16)"/>
<path d="M0 0 C2.64 0 5.28 0 8 0 C7.21625 0.598125 6.4325 1.19625 5.625 1.8125 C2.85425677 3.91085249 2.85425677 3.91085249 1 7 C0.67 4.69 0.34 2.38 0 0 Z " fill="#FAFAFA" transform="translate(10,31)"/>
<path d="M0 0 C1.4540625 0.0309375 1.4540625 0.0309375 2.9375 0.0625 C2.6075 1.0525 2.2775 2.0425 1.9375 3.0625 C1.2775 3.0625 0.6175 3.0625 -0.0625 3.0625 C-0.0625 3.7225 -0.0625 4.3825 -0.0625 5.0625 C-1.0525 5.0625 -2.0425 5.0625 -3.0625 5.0625 C-3.625 3.125 -3.625 3.125 -4.0625 1.0625 C-3.0625 0.0625 -3.0625 0.0625 0 0 Z " fill="#818181" transform="translate(8.0625,13.9375)"/>
<path d="M0 0 C0 0.33 0 0.66 0 1 C-5.5415502 2.96263236 -9.20858017 3.01603857 -15 2 C-15 1.67 -15 1.34 -15 1 C-9.91913204 0.15318867 -5.15171623 -0.09038099 0 0 Z " fill="#E1E1E1" transform="translate(25,29)"/>
<path d="M0 0 C2.64 0 5.28 0 8 0 C7.34 1.32 6.68 2.64 6 4 C6 3.34 6 2.68 6 2 C4.02 2 2.04 2 0 2 C0 1.34 0 0.68 0 0 Z " fill="#9C9C9C" transform="translate(35,18)"/>
<path d="M0 0 C0.66 0.99 1.32 1.98 2 3 C1.34 3.66 0.68 4.32 0 5 C0.33 5.66 0.66 6.32 1 7 C-0.32 6.67 -1.64 6.34 -3 6 C-2.67 4.68 -2.34 3.36 -2 2 C-1.34 2 -0.68 2 0 2 C0 1.34 0 0.68 0 0 Z " fill="#AC704F" transform="translate(19,38)"/>
</svg>
