<svg xmlns="http://www.w3.org/2000/svg" width="1024" height="1024" viewBox="0 0 1024 1024" preserveAspectRatio="xMidYMid meet">
<g transform="translate(-204,1290) scale(0.14,-0.14)" stroke="none">
<defs>
  <clipPath id="right-half">
    <rect x="5120" y="-2000" width="6000" height="15000" />
  </clipPath>
</defs>
<path fill="#0074AD" d="M1976 8944 c-14 -14 -16 -81 -16 -588 0 -442 3 -576 13 -588 6 -9 80 -59 162 -111 277 -174 745 -471 1450 -919 989 -628 1211 -770 1369 -870 84 -53 150 -88 166 -88 14 0 53 17 86 38 71 46 601 383 799 507 77 48 237 150 355 225 522 333 1758 1118 1858 1179 29 19 54 42 57 54 3 12 4 278 3 590 -3 623 0 592 -63 583 -17 -2 -67 -28 -112 -57 -46 -30 -115 -75 -155 -100 -40 -26 -444 -283 -898 -571 -454 -289 -890 -567 -970 -618 -80 -51 -185 -119 -235 -150 -49 -31 -166 -105 -260 -165 -397 -251 -456 -287 -473 -283 -10 3 -107 63 -217 133 -110 70 -285 182 -390 248 -104 66 -343 217 -530 337 -187 119 -452 288 -590 375 -137 87 -338 214 -445 283 -955 613 -925 595 -964 556z"/>
<path fill="#0096FF" clip-path="url(#right-half)" d="M1976 8944 c-14 -14 -16 -81 -16 -588 0 -442 3 -576 13 -588 6 -9 80 -59 162 -111 277 -174 745 -471 1450 -919 989 -628 1211 -770 1369 -870 84 -53 150 -88 166 -88 14 0 53 17 86 38 71 46 601 383 799 507 77 48 237 150 355 225 522 333 1758 1118 1858 1179 29 19 54 42 57 54 3 12 4 278 3 590 -3 623 0 592 -63 583 -17 -2 -67 -28 -112 -57 -46 -30 -115 -75 -155 -100 -40 -26 -444 -283 -898 -571 -454 -289 -890 -567 -970 -618 -80 -51 -185 -119 -235 -150 -49 -31 -166 -105 -260 -165 -397 -251 -456 -287 -473 -283 -10 3 -107 63 -217 133 -110 70 -285 182 -390 248 -104 66 -343 217 -530 337 -187 119 -452 288 -590 375 -137 87 -338 214 -445 283 -955 613 -925 595 -964 556z"/>
<path fill="#00527A" d="M1977 6862 c-16 -17 -17 -145 -17 -1641 l0 -1623 28 -24 c15 -13 65 -48 112 -77 47 -30 220 -140 384 -246 165 -105 310 -191 323 -191 12 0 27 9 33 19 7 13 10 374 10 1098 0 1108 0 1103 37 1103 7 0 102 -57 210 -127 109 -69 278 -178 376 -240 98 -63 192 -117 210 -119 25 -4 47 4 102 37 111 68 627 399 663 426 36 27 42 61 15 85 -16 14 -236 154 -773 493 -80 50 -170 107 -200 127 -30 19 -111 71 -180 114 -69 42 -255 161 -415 262 -706 450 -855 542 -881 542 -11 0 -28 -8 -37 -18z"/>
<path fill="#0096FF" d="M7895 6684 c-171 -108 -371 -235 -445 -282 -74 -47 -211 -133 -305 -192 -93 -59 -341 -215 -550 -347 -209 -132 -438 -277 -510 -323 -71 -46 -170 -108 -218 -138 -91 -56 -119 -90 -101 -119 20 -32 742 -493 772 -493 29 0 7 -13 446 267 192 123 355 223 362 223 7 0 20 -7 28 -16 14 -14 16 -126 16 -1090 0 -722 3 -1082 10 -1095 6 -11 21 -19 36 -19 31 0 819 502 834 530 6 12 10 607 10 1639 0 1459 -2 1621 -16 1635 -8 9 -25 16 -37 16 -12 0 -162 -88 -332 -196z"/>
<path fill="#0074AD" d="M4831 5077 c-13 -6 -33 -23 -43 -38 -18 -24 -19 -54 -18 -759 1 -819 -3 -772 70 -811 31 -17 60 -19 281 -19 239 0 247 1 280 23 72 48 68 10 69 805 0 792 2 764 -65 796 -27 13 -77 16 -292 16 -185 0 -265 -4 -282 -13z"/>
<path fill="#00527A" d="M3516 4131 c-17 -18 -18 -48 -13 -393 4 -338 6 -382 26 -473 92 -415 367 -753 776 -955 152 -75 277 -118 431 -149 420 -85 835 -33 1199 149 423 213 707 573 779 990 23 137 24 811 0 834 -8 9 -23 16 -33 16 -10 0 -76 -37 -147 -82 -71 -44 -165 -104 -209 -131 -44 -28 -126 -81 -182 -118 -89 -60 -103 -73 -107 -101 -28 -203 -47 -268 -107 -370 -229 -389 -819 -532 -1274 -309 -120 59 -213 134 -288 233 -94 125 -137 229 -156 382 -7 62 -14 84 -33 101 -21 20 -542 356 -595 384 -31 16 -47 14 -67 -8z"/>
</g>
</svg>
