<svg xmlns="http://www.w3.org/2000/svg" version="1.1" xmlns:xlink="http://www.w3.org/1999/xlink" width="512" height="512" x="0" y="0" viewBox="-4 -4 72 72" style="enable-background:new 0 0 512 512" xml:space="preserve" class=""><rect x="-4" y="-4" width="72" height="72" fill="none"/><circle r="32" cx="32" cy="32" fill="#2568ec" shape="circle"></circle><g transform="matrix(0.7,0,0,0.7,9.600044345855714,9.600000286102297)"><path d="M43.22 52.285c-1.08.42-4.5 1.42-6.06.53a1.536 1.536 0 0 1-.76-1.21c-.49-3.12 1.84-10.33 3.1-14.2.42-1.29.72-2.23.84-2.8.91-4.21.46-7.43-1.34-9.57-2.166-2.575-6.008-3.076-9.16-2.61a35.65 35.65 0 0 0-9.31 2.56.99.99 0 0 0-.54.7l-.65 3.11a1.005 1.005 0 0 0 .33.96 1.031 1.031 0 0 0 1 .18c1.19-.44 4.91-1.43 6.24-.21.75.69.54 2.15.24 3.24-.31 1.14-.68 2.37-1.06 3.66-2.46 8.37-5.26 17.86-.82 20.82a12.44 12.44 0 0 0 7.3 2.55c2.6 0 5.81-.82 10.43-2.69a.998.998 0 0 0 .59-.63l.95-3.17a1.013 1.013 0 0 0-.28-1.03.994.994 0 0 0-1.04-.19zM37.44 4.005a7.235 7.235 0 1 0 7.24 7.24 7.242 7.242 0 0 0-7.24-7.24z" fill="#ffffff" opacity="1" data-original="#000000" class=""></path></g></svg>