<svg xmlns="http://www.w3.org/2000/svg" version="1.1" xmlns:xlink="http://www.w3.org/1999/xlink" width="512" height="512" x="0" y="0" viewBox="-2 -2 104 104" style="enable-background:new 0 0 512 512" xml:space="preserve" class=""><circle r="50" cx="50" cy="50" fill="#2568ec" shape="circle"></circle><g transform="matrix(0.7,0,0,0.7,14.999946784973147,15.000010299682621)"><path d="M47.633 2.5c-2.126.242-4.603.367-7.017.829-5.655 1.08-10.71 3.485-14.87 7.529a10.294 10.294 0 0 0-.55 14.227c2.948 3.352 7.325 3.341 11.986-.031.32-.233.647-.458.962-.697 3.48-2.64 7.466-3.674 11.727-3.249 3.515.352 6.526 1.861 7.782 5.494 1.213 3.506-.484 6.153-2.95 8.393-1.237 1.125-2.663 2.046-4.011 3.049-8.1 6.019-11.618 15.485-9.127 24.568 1.185 4.322 3.199 6.59 5.846 6.586 2.59-.003 4.563-2.035 5.716-6.333 1.198-4.461 3.49-8.197 7.013-11.104 2.819-2.325 5.902-4.325 8.742-6.623 8.88-7.187 11.038-18.305 5.399-28.203C68.49 6.772 59.069 3.132 47.633 2.5zM49.12 76.368c-6.542.01-10.696 4.033-10.682 10.346.014 6.241 4.46 10.807 10.502 10.786 6.34-.022 10.896-4.534 10.865-10.76-.03-6.339-4.197-10.383-10.685-10.372z" fill="#ffffff" opacity="1" data-original="#000000" class=""></path></g></svg>