<svg xmlns="http://www.w3.org/2000/svg" version="1.1" xmlns:xlink="http://www.w3.org/1999/xlink" width="512" height="512" x="0" y="0" viewBox="0 0 24 24" style="enable-background:new 0 0 512 512" xml:space="preserve" class=""><g><path d="M4.13 3.05a4.264 4.264 0 0 0-1.08 1.08A6.143 6.143 0 0 0 2 7.81v8.38C2 19.83 4.17 22 7.81 22h7.47V2H7.81a6.143 6.143 0 0 0-3.68 1.05zM8.5 9.971A.75.75 0 1 1 9.556 8.91l2.56 2.56a.749.749 0 0 1 0 1.06l-2.56 2.56A.75.75 0 0 1 8.5 14.029L10.525 12zM22 7.81v8.38a6.143 6.143 0 0 1-1.05 3.68 4.264 4.264 0 0 1-1.08 1.08 5.779 5.779 0 0 1-3.09 1.03V2.03C20.06 2.24 22 4.37 22 7.81z" data-name="1" fill="#ffffff" opacity="1" data-original="#000000" class=""></path></g></svg>